<svg width="24" height="24" viewBox="0 0 24 24" fill="none" xmlns="http://www.w3.org/2000/svg">
<path fill-rule="evenodd" clip-rule="evenodd" d="M6.16983 4.55762C6.16812 4.55851 6.16784 4.55866 6.16902 4.55786C6.12456 4.58787 6.02311 4.65254 5.8968 4.73306C5.76712 4.81573 5.61124 4.9151 5.46392 5.01081C5.13852 5.22223 4.8691 5.40691 4.79436 5.47637C4.70353 5.56079 4.64924 5.62132 4.60383 5.73201C4.5526 5.85687 4.5 6.08054 4.5 6.50279C4.5 7.30624 4.81583 8.57952 5.72099 10.2206C6.75174 12.0893 8.30993 13.8811 9.22686 14.7754L9.23314 14.7815H9.23308C10.1272 15.6847 11.822 17.2126 13.5798 18.1793C15.7619 19.3794 16.6125 19.5 17.373 19.5C17.7666 19.5 18.0085 19.4462 18.1591 19.3884C18.3023 19.3335 18.3832 19.2675 18.4475 19.2036C18.8148 18.839 19.0869 18.4106 19.2688 18.0652C19.3589 17.894 19.4248 17.7473 19.4676 17.6448C19.4784 17.6189 19.4877 17.5959 19.4955 17.5761C19.4917 17.5455 19.4845 17.5065 19.4716 17.4632C19.4389 17.3528 19.3719 17.2215 19.2261 17.1146C18.6752 16.7419 16.9227 15.6505 16.5486 15.445C16.485 15.4101 16.4229 15.3713 16.3709 15.3386C16.3645 15.3346 16.3583 15.3307 16.3521 15.3268C16.3046 15.2969 16.2632 15.2709 16.2201 15.2456C16.124 15.1893 16.0471 15.1539 15.9751 15.1358C15.8738 15.1104 15.698 15.094 15.38 15.3328C15.2576 15.444 14.9986 15.6496 14.6881 15.8247C14.3792 15.9989 13.9063 16.2091 13.435 16.1378C13.2827 16.1147 13.1326 16.0506 13.0092 15.9885C12.8774 15.9221 12.7363 15.8372 12.5937 15.7435C12.3081 15.5558 11.9887 15.3145 11.6812 15.0672C11.0696 14.5752 10.4657 14.0274 10.2196 13.7696C10.1918 13.7405 10.1581 13.7055 10.1193 13.6651C9.84823 13.383 9.3287 12.8424 8.85331 12.2816C8.58211 11.9617 8.31528 11.6236 8.11357 11.3142C8.01282 11.1597 7.92173 11.0023 7.85428 10.8507C7.79063 10.7076 7.72867 10.5275 7.72867 10.3394C7.72867 9.93036 7.80181 9.6359 7.96358 9.35683C8.03659 9.23088 8.12217 9.11776 8.2026 9.01463C8.22354 8.98779 8.24429 8.96141 8.26512 8.93494C8.32857 8.8543 8.39269 8.77282 8.46463 8.67471C8.50277 8.62268 8.54754 8.57015 8.58115 8.53071C8.58335 8.52813 8.5855 8.52561 8.58759 8.52315C8.62626 8.47774 8.6593 8.43869 8.69073 8.3974C8.75275 8.31594 8.7939 8.24406 8.81569 8.17089C8.84812 8.062 8.87976 7.81309 8.51406 7.32525L8.5068 7.31557L8.50002 7.30555C8.26106 6.95241 7.98161 6.53126 7.70719 6.11769C7.34187 5.56715 6.98548 5.03004 6.74542 4.68471C6.68622 4.59955 6.62929 4.55818 6.58395 4.53579C6.53652 4.51236 6.48336 4.50082 6.42426 4.50004C6.36368 4.49924 6.30222 4.51 6.2486 4.52641C6.20301 4.54037 6.17628 4.55427 6.16983 4.55762ZM19.9996 17.6562C20.4988 17.6843 20.4988 17.684 20.4988 17.6838L20.4989 17.6833V17.6823L20.499 17.6802L20.4992 17.6752L20.4997 17.6625C20.4999 17.6529 20.5001 17.6409 20.5 17.6269C20.4997 17.5988 20.4985 17.562 20.4948 17.5181C20.4874 17.4309 20.4701 17.3126 20.4303 17.1785C20.3499 16.908 20.1749 16.5655 19.8054 16.2994L19.7996 16.2953L19.7937 16.2913C19.2347 15.9123 17.4419 14.7948 17.0301 14.5685C16.9953 14.5494 16.9561 14.5253 16.903 14.492C16.8972 14.4883 16.8912 14.4845 16.885 14.4806C16.8388 14.4515 16.7834 14.4167 16.7258 14.3829C16.594 14.3057 16.4231 14.2172 16.2184 14.1658C15.7681 14.0529 15.2798 14.1488 14.7539 14.5526L14.7338 14.5681L14.7153 14.5855C14.6586 14.639 14.4514 14.8101 14.1968 14.9537C13.9209 15.1093 13.7035 15.167 13.5845 15.149C13.5855 15.1492 13.5852 15.1491 13.5835 15.1486C13.5755 15.1462 13.5366 15.1345 13.459 15.0954C13.3734 15.0522 13.267 14.9894 13.1428 14.9077C12.8947 14.7448 12.6031 14.5254 12.308 14.288C11.7145 13.8106 11.1473 13.2933 10.9429 13.0791C10.9133 13.0481 10.8781 13.0114 10.8381 12.9698C10.5649 12.6854 10.0693 12.1695 9.61612 11.635C9.35592 11.3281 9.11973 11.0265 8.95127 10.7681C8.86693 10.6387 8.80615 10.5301 8.76799 10.4443C8.73385 10.3676 8.72924 10.3342 8.7287 10.3342C8.72858 10.3342 8.72867 10.336 8.72867 10.3394C8.72867 10.0691 8.77231 9.95567 8.82873 9.85835C8.86481 9.79611 8.91368 9.72893 8.99112 9.62964C9.00764 9.60846 9.02551 9.58576 9.0445 9.56162C9.10963 9.47888 9.18805 9.37925 9.2711 9.26598C9.28557 9.24624 9.30695 9.2208 9.34895 9.17148L9.34955 9.17078C9.38697 9.12683 9.43647 9.06871 9.48636 9.00318C9.58753 8.87031 9.70479 8.689 9.77408 8.45634C9.92306 7.95614 9.80632 7.38617 9.32169 6.73547C9.09681 6.40298 8.82474 5.99307 8.55379 5.58484C8.18044 5.02234 7.80921 4.46305 7.56651 4.11392C7.25189 3.66134 6.81824 3.50515 6.43744 3.50013C6.08865 3.49553 5.77795 3.61537 5.60965 3.72895C5.5698 3.75584 5.48795 3.80793 5.37896 3.87729C5.25393 3.95686 5.09317 4.05917 4.91912 4.17225C4.62793 4.36144 4.2675 4.60083 4.11359 4.74388C3.97577 4.87197 3.80308 5.0492 3.67867 5.35244C3.56007 5.64151 3.5 6.00792 3.5 6.50279C3.5 7.53359 3.89247 8.97597 4.84536 10.7035C5.93584 12.6805 7.56128 14.5472 8.52552 15.4882C9.44813 16.4197 11.2197 18.0226 13.0979 19.0556C15.3622 20.3008 16.3824 20.5 17.373 20.5C17.855 20.5 18.2243 20.4344 18.5172 20.3221C18.8175 20.2069 19.0122 20.0521 19.1521 19.9133C19.6155 19.4532 19.9433 18.9306 20.1536 18.531C20.2596 18.3297 20.338 18.1555 20.3903 18.0302C20.4165 17.9675 20.4363 17.9167 20.45 17.8805C20.4519 17.8755 20.4536 17.8708 20.4553 17.8664C20.4596 17.8548 20.4631 17.8451 20.4658 17.8375L20.4703 17.8248L20.4718 17.8208L20.4723 17.8193L20.4725 17.8187V17.8185C20.4726 17.8184 20.4726 17.8183 19.9996 17.6562ZM20.4726 17.8183L19.9996 17.6562L20.4988 17.6843L20.4949 17.7531L20.4726 17.8183Z" fill="#14305B"/>
</svg>
