<svg width="24" height="24" viewBox="0 0 24 24" fill="none" xmlns="http://www.w3.org/2000/svg">
<mask id="mask0" mask-type="alpha" maskUnits="userSpaceOnUse" x="2" y="5" width="20" height="14">
<path d="M2 6.90476C2 5.85279 2.85279 5 3.90476 5H20.0952C21.1472 5 22 5.85279 22 6.90476V16.4286C22 17.4805 21.1472 18.3333 20.0952 18.3333H3.90476C2.85279 18.3333 2 17.4805 2 16.4286V6.90476Z" fill="white"/>
</mask>
<g mask="url(#mask0)">
<path fill-rule="evenodd" clip-rule="evenodd" d="M20.0952 5.95238H3.90476C3.37878 5.95238 2.95238 6.37878 2.95238 6.90476V16.4286C2.95238 16.9546 3.37878 17.381 3.90476 17.381H20.0952C20.6212 17.381 21.0476 16.9546 21.0476 16.4286V6.90476C21.0476 6.37878 20.6212 5.95238 20.0952 5.95238ZM3.90476 5C2.85279 5 2 5.85279 2 6.90476V16.4286C2 17.4805 2.85279 18.3333 3.90476 18.3333H20.0952C21.1472 18.3333 22 17.4805 22 16.4286V6.90476C22 5.85279 21.1472 5 20.0952 5H3.90476Z" fill="#14305B"/>
<path fill-rule="evenodd" clip-rule="evenodd" d="M-0.785357 3.09496L10.8798 11.5787C11.5477 12.0645 12.4526 12.0645 13.1205 11.5787L24.7857 3.09496H-0.785357ZM10.3197 12.3489C11.3215 13.0776 12.6788 13.0776 13.6807 12.3489L27.7145 2.14258H-3.71411L10.3197 12.3489Z" fill="#14305B"/>
<path fill-rule="evenodd" clip-rule="evenodd" d="M10.3926 12.0386L3.24973 17.7529L2.65479 17.0092L9.79764 11.2949L10.3926 12.0386Z" fill="#14305B"/>
<path fill-rule="evenodd" clip-rule="evenodd" d="M14.0835 12.0386L21.2263 17.7529L21.8213 17.0092L14.6784 11.2949L14.0835 12.0386Z" fill="#14305B"/>
</g>
</svg>
