<svg width="46" height="45" viewBox="0 0 46 45" fill="none" xmlns="http://www.w3.org/2000/svg">
<ellipse cx="23" cy="22.5" rx="23" ry="22.5" fill="white"/>
<path d="M15.0958 25.21C14.4425 25.21 13.8825 24.9884 13.4158 24.545C12.9492 24.0784 12.7158 23.495 12.7158 22.795C12.7158 22.1184 12.9492 21.5584 13.4158 21.115C13.8825 20.6484 14.4425 20.415 15.0958 20.415C15.7492 20.415 16.2975 20.6367 16.7408 21.08C17.1842 21.5234 17.4058 22.095 17.4058 22.795C17.4058 23.495 17.1725 24.0784 16.7058 24.545C16.2625 24.9884 15.7258 25.21 15.0958 25.21Z" fill="black"/>
<path d="M23.0255 25.21C22.3722 25.21 21.8122 24.9884 21.3455 24.545C20.8788 24.0784 20.6455 23.495 20.6455 22.795C20.6455 22.1184 20.8788 21.5584 21.3455 21.115C21.8122 20.6484 22.3722 20.415 23.0255 20.415C23.6788 20.415 24.2272 20.6367 24.6705 21.08C25.1138 21.5234 25.3355 22.095 25.3355 22.795C25.3355 23.495 25.1022 24.0784 24.6355 24.545C24.1922 24.9884 23.6555 25.21 23.0255 25.21Z" fill="black"/>
<path d="M30.9552 25.21C30.3019 25.21 29.7419 24.9884 29.2752 24.545C28.8085 24.0784 28.5752 23.495 28.5752 22.795C28.5752 22.1184 28.8085 21.5584 29.2752 21.115C29.7419 20.6484 30.3019 20.415 30.9552 20.415C31.6085 20.415 32.1569 20.6367 32.6002 21.08C33.0435 21.5234 33.2652 22.095 33.2652 22.795C33.2652 23.495 33.0319 24.0784 32.5652 24.545C32.1219 24.9884 31.5852 25.21 30.9552 25.21Z" fill="black"/>
</svg>
