<svg width="91" height="45" viewBox="0 0 91 45" fill="none" xmlns="http://www.w3.org/2000/svg">
<path d="M67.8911 1.50537H52.4584V44.4331H67.8911C81.7245 44.4331 90.9201 36.827 90.9201 22.9737C90.9201 9.11149 81.7245 1.50537 67.8911 1.50537ZM66.9049 35.5388H62.5869V10.3998H66.9049C75.4874 10.3998 80.4273 14.5734 80.4273 22.9737C80.4273 31.3651 75.4874 35.5388 66.9049 35.5388Z" fill="white"/>
<path d="M38.3773 8.40753e-05L37.2401 4.49268L46.8042 6.88055L47.9414 2.38796L38.3773 8.40753e-05Z" fill="white"/>
<path d="M36.8491 6.03963L30.2534 32.0967L39.8175 34.4846L46.4132 8.42751L36.8491 6.03963Z" fill="white"/>
<path d="M28.7126 38.1491L27.584 42.6074L37.1482 44.9953L38.2767 40.5369L28.7126 38.1491Z" fill="white"/>
<path d="M29.8545 33.6437L29.105 36.6045L38.6692 38.9924L39.4186 36.0315L29.8545 33.6437Z" fill="white"/>
<path d="M21.0621 1.6918L18.8419 5.76562L27.5145 10.4278L29.7347 6.35395L21.0621 1.6918Z" fill="white"/>
<path d="M18.0743 7.17071L5.19666 30.7988L13.8693 35.461L26.7469 11.8328L18.0743 7.17071Z" fill="white"/>
<path d="M2.20336 36.2951L0 40.3379L8.67261 45L10.876 40.9573L2.20336 36.2951Z" fill="white"/>
<path d="M4.44004 32.2009L2.97678 34.8857L11.6494 39.5479L13.1126 36.863L4.44004 32.2009Z" fill="white"/>
</svg>
