<svg width="16" height="6" viewBox="0 0 16 6" fill="none" xmlns="http://www.w3.org/2000/svg">
<path d="M15.4088 0C13.7603 1.31728 11.1366 2.88747 7.99977 2.88747C4.86295 2.88747 2.23952 1.31749 0.590946 0L0 0.639971C0.468948 1.0148 1.01499 1.40861 1.62454 1.78513L0.265541 3.52491L0.999348 4.02102L2.39644 2.23252C3.0273 2.57191 3.7153 2.88219 4.45228 3.1311L3.69512 5.29886L4.55795 5.55957L5.31761 3.38443C6.02398 3.56477 6.76822 3.68395 7.54625 3.7177V6H8.4533V3.7177C9.23133 3.68395 9.97557 3.56477 10.6817 3.38443L11.4418 5.55999L12.3047 5.29928L11.5473 3.1311C12.2842 2.88219 12.972 2.57254 13.6029 2.23252L15.0004 4.02166L15.7342 3.52554L14.3748 1.78492C14.9846 1.4084 15.5308 1.01501 16 0.63976L15.4088 0Z" fill="#1B1B1F"/>
</svg>
