<svg width="9" height="14" viewBox="0 0 9 14" fill="none" xmlns="http://www.w3.org/2000/svg">
<path d="M8.37508 2.39743C7.58074 0.93115 6.16985 0.0353418 4.60089 0.00110742C4.53391 -0.00036914 4.4665 -0.00036914 4.3995 0.00110742C2.83057 0.0353418 1.41967 0.93115 0.625312 2.39743C-0.186634 3.89619 -0.208849 5.6965 0.565877 7.21329L3.81149 13.5676C3.81295 13.5704 3.8144 13.5732 3.81591 13.576C3.95871 13.8415 4.21452 14 4.50025 14C4.78594 14 5.04176 13.8415 5.18453 13.576C5.18604 13.5732 5.18749 13.5704 5.18895 13.5676L8.43456 7.21329C9.20924 5.6965 9.18702 3.89619 8.37508 2.39743ZM4.5002 6.34376C3.4853 6.34376 2.65963 5.46058 2.65963 4.37501C2.65963 3.28944 3.4853 2.40626 4.5002 2.40626C5.51509 2.40626 6.34076 3.28944 6.34076 4.37501C6.34076 5.46058 5.51512 6.34376 4.5002 6.34376Z" fill="black"/>
</svg>
