<svg width="17" height="16" viewBox="0 0 17 16" fill="none" xmlns="http://www.w3.org/2000/svg">
<path d="M6.97357 2.32047C7.49913 1.1772 7.76191 0.605569 8.14327 0.459946C8.373 0.372221 8.627 0.372221 8.85673 0.459946C9.23809 0.605569 9.50087 1.1772 10.0264 2.32047L10.8626 4.13939C11.0256 4.49395 11.1071 4.67123 11.2379 4.79988C11.3193 4.87991 11.4138 4.94541 11.5173 4.99355C11.6837 5.07093 11.8783 5.08505 12.2675 5.11328L14.1125 5.2471C15.5814 5.35365 16.3159 5.40692 16.5886 5.74484C16.7521 5.94739 16.8301 6.20569 16.8062 6.46488C16.7662 6.89728 16.1842 7.34838 15.0201 8.25058L13.8725 9.13996C13.5293 9.40601 13.3576 9.53903 13.2586 9.71445C13.1971 9.82337 13.1566 9.94287 13.1392 10.0667C13.1111 10.2662 13.1665 10.4762 13.2772 10.8961L13.6702 12.3867C14.0116 13.6818 14.1824 14.3294 13.9686 14.6896C13.8401 14.9062 13.6346 15.0663 13.3931 15.138C12.9916 15.2571 12.4054 14.9332 11.2331 14.2854L9.31259 13.2241C8.99216 13.047 8.83195 12.9584 8.66085 12.9306C8.55432 12.9132 8.44568 12.9132 8.33915 12.9306C8.16805 12.9584 8.00784 13.047 7.68741 13.2241L5.76692 14.2854C4.5946 14.9332 4.00845 15.2571 3.60687 15.138C3.36545 15.0663 3.15995 14.9062 3.03143 14.6896C2.81765 14.3294 2.98838 13.6818 3.32984 12.3867L3.72282 10.8961C3.83354 10.4762 3.88889 10.2662 3.86083 10.0667C3.84341 9.94287 3.8029 9.82337 3.74141 9.71445C3.64238 9.53903 3.47074 9.40601 3.12747 9.13996L1.97991 8.25058C0.815822 7.34838 0.233776 6.89728 0.19383 6.46488C0.169887 6.20569 0.247942 5.94739 0.411412 5.74484C0.684138 5.40692 1.4186 5.35365 2.88752 5.2471L4.7325 5.11328C5.12171 5.08505 5.31631 5.07093 5.48269 4.99355C5.58619 4.94541 5.68068 4.87991 5.76207 4.79988C5.89291 4.67123 5.9744 4.49395 6.1374 4.13939L6.97357 2.32047Z" fill="#C4C4C4"/>
</svg>
