<svg width="13" height="8" viewBox="0 0 13 8" fill="none" xmlns="http://www.w3.org/2000/svg">
<path d="M0.414557 0.857333L5.83122 3.54333C6.01322 3.63333 6.24867 3.676 6.48556 3.676C6.72244 3.676 6.95789 3.63333 7.13989 3.54333L12.5566 0.857333C12.9097 0.682 13.2434 0 12.5956 0H0.376279C-0.271554 0 0.0621123 0.682 0.414557 0.857333ZM12.7205 2.326L7.13989 5.01067C6.89433 5.12933 6.72244 5.14333 6.48556 5.14333C6.24867 5.14333 6.07678 5.12933 5.83122 5.01067C5.58567 4.892 0.679612 2.518 0.278779 2.32533C-0.00288769 2.18933 1.16715e-06 2.34867 1.16715e-06 2.47133V7.33333C1.16715e-06 7.61333 0.408779 8 0.722223 8H12.2778C12.5912 8 13 7.61333 13 7.33333V2.472C13 2.34933 13.0029 2.19 12.7205 2.326Z" fill="#758293"/>
</svg>
