<svg width="23" height="14" viewBox="0 0 23 14" fill="none" xmlns="http://www.w3.org/2000/svg">
<path fill-rule="evenodd" clip-rule="evenodd" d="M0.232349 6.15788C2.5156 3.48308 12.1015 -6.17356 22.7063 6.0258C23.0979 6.47395 23.0979 7.1344 22.7063 7.57784C20.2014 10.4508 10.6957 19.6215 0.227631 7.40329C-0.0790039 7.04477 -0.0742864 6.51641 0.232349 6.15788ZM6.69055 6.79474C6.69055 9.47426 8.86059 11.6443 11.5401 11.6443C14.2149 11.6443 16.3897 9.47426 16.3897 6.79474C16.3897 4.11522 14.2196 1.94519 11.5401 1.94519C8.86059 1.94519 6.69055 4.11522 6.69055 6.79474ZM8.12459 6.79484C8.12459 4.90785 9.65305 3.37939 11.54 3.37939C13.4223 3.37939 14.9508 4.90785 14.9555 6.79484C14.9555 8.68182 13.427 10.2103 11.54 10.2103C9.65305 10.2103 8.12459 8.68182 8.12459 6.79484ZM10.4267 6.79484C10.4267 6.18157 10.9268 5.68152 11.54 5.68152C11.8184 5.68152 12.0495 5.45508 12.0495 5.17203C12.0495 4.88898 11.8231 4.66254 11.54 4.66254C10.3654 4.66254 9.40774 5.62019 9.40774 6.79484C9.40774 7.07789 9.63418 7.30432 9.91722 7.30432C10.2003 7.30432 10.4267 7.07789 10.4267 6.79484Z" fill="black"/>
</svg>
