<svg width="38" height="38" viewBox="0 0 38 38" fill="none" xmlns="http://www.w3.org/2000/svg">
<rect width="38" height="38" rx="19" fill="white"/>
<path d="M30.7703 16.8669H29.8183V16.8178H19.182V21.5451H25.861C24.8866 24.297 22.2683 26.2724 19.182 26.2724C15.266 26.2724 12.091 23.0974 12.091 19.1815C12.091 15.2655 15.266 12.0906 19.182 12.0906C20.9895 12.0906 22.634 12.7725 23.8862 13.8863L27.229 10.5436C25.1182 8.57642 22.2949 7.36328 19.182 7.36328C12.6554 7.36328 7.36377 12.6549 7.36377 19.1815C7.36377 25.7081 12.6554 30.9996 19.182 30.9996C25.7085 30.9996 31.0001 25.7081 31.0001 19.1815C31.0001 18.3891 30.9186 17.6156 30.7703 16.8669Z" fill="#FFC107"/>
<path d="M8.72607 13.6807L12.6089 16.5283C13.6596 13.9271 16.204 12.0906 19.1816 12.0906C20.9892 12.0906 22.6337 12.7725 23.8858 13.8863L27.2286 10.5436C25.1179 8.57642 22.2945 7.36328 19.1816 7.36328C14.6423 7.36328 10.7056 9.92605 8.72607 13.6807Z" fill="#FF3D00"/>
<path d="M19.1818 30.9998C22.2344 30.9998 25.0081 29.8316 27.1053 27.9318L23.4476 24.8366C22.2211 25.7693 20.7226 26.2737 19.1818 26.2725C16.1079 26.2725 13.4978 24.3125 12.5146 21.5771L8.66064 24.5465C10.6166 28.3738 14.5886 30.9998 19.1818 30.9998Z" fill="#4CAF50"/>
<path d="M30.77 16.8674H29.818V16.8184H19.1816V21.5456H25.8607C25.3946 22.8553 24.555 23.9998 23.4456 24.8376L23.4474 24.8364L27.1051 27.9316C26.8463 28.1668 30.9998 25.0911 30.9998 19.182C30.9998 18.3896 30.9183 17.6161 30.77 16.8674Z" fill="#1976D2"/>
</svg>
