<svg width="35" height="35" viewBox="0 0 35 35" fill="none" xmlns="http://www.w3.org/2000/svg">
<path fill-rule="evenodd" clip-rule="evenodd" d="M17.3976 32.2318C17.3043 32.2335 17.2109 32.2344 17.1172 32.2344C17.1022 32.2344 17.0873 32.2344 17.0724 32.2343C17.1808 32.2341 17.2892 32.2333 17.3976 32.2318ZM26.9945 28.5617C26.8452 25.3144 23.6891 22.5029 21.053 21.034C20.8921 23.9521 17.002 26.269 17.002 26.269C17.002 26.269 13.2296 23.9521 13.0687 21.034C10.4826 22.4728 7.29368 25.2037 7.01906 28.3671C3.93795 25.5996 2 21.5847 2 17.1172C2 8.7682 8.7682 2 17.1172 2C25.4662 2 32.2344 8.7682 32.2344 17.1172C32.2344 21.6905 30.2035 25.7896 26.9945 28.5617ZM34.2344 17.1172C34.2344 26.5707 26.5707 34.2344 17.1172 34.2344C7.66363 34.2344 0 26.5707 0 17.1172C0 7.66363 7.66363 0 17.1172 0C26.5707 0 34.2344 7.66363 34.2344 17.1172ZM23.0903 15.4089C23.0903 18.819 20.3644 21.5834 17.002 21.5834C13.6395 21.5834 10.9136 18.819 10.9136 15.4089C10.9136 11.9988 13.6395 9.23438 17.002 9.23438C20.3644 9.23438 23.0903 11.9988 23.0903 15.4089Z" fill="white"/>
</svg>
