<svg width="21" height="21" viewBox="0 0 21 21" fill="none" xmlns="http://www.w3.org/2000/svg">
<path fill-rule="evenodd" clip-rule="evenodd" d="M16.8046 2.95202C16.8046 3.75016 16.1581 4.39228 15.36 4.39228C14.5626 4.39228 13.9183 3.75016 13.9183 2.95202V1.44315C13.9183 0.644288 14.5626 0 15.36 0C16.1581 0 16.8046 0.644288 16.8046 1.44315V2.95202ZM17.5836 2.4968H20.4879L20.5089 20.8034L19.0462 20.8077H1.46554H0V2.45997L2.9318 2.4968V3.23066C2.9318 4.44122 3.91484 5.42932 5.1283 5.42932C6.34176 5.42932 7.32625 4.44195 7.32625 3.23138V2.4968H13.1891V3.23138C13.1891 4.44195 14.1707 5.42932 15.3856 5.42932C16.5991 5.42932 17.5836 4.44195 17.5836 3.23138V2.4968ZM1.46554 19.3465H19.0462V7.6251H1.46554V19.3465ZM5.10538 4.39228C5.90351 4.39228 6.54852 3.75016 6.54852 2.95202V1.44315C6.54852 0.644288 5.90424 0 5.10538 0C4.30869 0 3.66368 0.644288 3.66368 1.44315V2.95202C3.66368 3.75016 4.30869 4.39228 5.10538 4.39228ZM7.33158 9.19834H9.63932V11.2359H7.33158V9.19834ZM13.375 9.19834H11.0644V11.2359H13.375V9.19834ZM14.5263 9.19834H16.8341V11.2359H14.5263V9.19834ZM9.63932 12.5823H7.33158V14.6185H9.63932V12.5823ZM11.0644 12.5823H13.375V14.6185H11.0644V12.5823ZM16.8341 12.5823H14.5263V14.6185H16.8341V12.5823ZM7.33158 16.0337H9.63932V18.0698H7.33158V16.0337ZM5.96997 12.5823H3.66368V14.6185H5.96997V12.5823ZM3.66368 16.0337H5.96997V18.0698H3.66368V16.0337ZM13.375 16.0337H11.0644V18.0698H13.375V16.0337ZM14.5263 16.0337H16.8341V18.0698H14.5263V16.0337Z" fill="#030104"/>
</svg>
