<svg width="24" height="17" viewBox="0 0 24 17" fill="none" xmlns="http://www.w3.org/2000/svg">
<path d="M23.4516 2.65413C24 4.5475 24 8.5 24 8.5C24 8.5 24 12.4525 23.4516 14.3459C23.1468 15.3924 22.2552 16.2159 21.126 16.4942C19.0752 17 12 17 12 17C12 17 4.9284 17 2.874 16.4942C1.74 16.2116 0.8496 15.3893 0.5484 14.3459C3.57628e-08 12.4525 0 8.5 0 8.5C0 8.5 3.57628e-08 4.5475 0.5484 2.65413C0.8532 1.60756 1.7448 0.784125 2.874 0.50575C4.9284 -1.8999e-07 12 0 12 0C12 0 19.0752 -1.8999e-07 21.126 0.50575C22.26 0.788375 23.1504 1.61075 23.4516 2.65413ZM9.6 12.2188L16.8 8.5L9.6 4.78125V12.2188Z" fill="#14305B"/>
</svg>
