<svg width="35" height="35" viewBox="0 0 35 35" fill="none" xmlns="http://www.w3.org/2000/svg">
<path d="M33.2344 17.1172C33.2344 26.0185 26.0185 33.2344 17.1172 33.2344C8.21591 33.2344 1 26.0185 1 17.1172C1 8.21591 8.21591 1 17.1172 1C26.0185 1 33.2344 8.21591 33.2344 17.1172Z" stroke="#4C5E79" stroke-width="2"/>
<path d="M17.002 21.5834C20.3644 21.5834 23.0903 18.819 23.0903 15.4089C23.0903 11.9988 20.3644 9.23438 17.002 9.23438C13.6395 9.23438 10.9136 11.9988 10.9136 15.4089C10.9136 18.819 13.6395 21.5834 17.002 21.5834Z" fill="#4C5E79"/>
<path d="M27 28.8009V30.4928C20.7507 32.7381 13.9441 32.8137 7.65162 30.7118L7 30.4968V28.8049C7 25.4569 10.3641 22.5388 13.0687 21.034C13.2296 23.9521 17.002 26.269 17.002 26.269C17.002 26.269 20.8921 23.9521 21.053 21.034C23.7537 22.5388 27 25.4529 27 28.8009Z" fill="#4C5E79"/>
</svg>
