<svg width="243" height="45" viewBox="0 0 243 45" fill="none" xmlns="http://www.w3.org/2000/svg">
<path d="M32.9097 22.7764H25.4289V43.5852H32.9097C39.6153 43.5852 44.0727 39.8982 44.0727 33.1829C44.0727 26.4634 39.6153 22.7764 32.9097 22.7764ZM32.4316 39.2737H30.3385V27.0878H32.4316C36.5919 27.0878 38.9865 29.111 38.9865 33.1829C38.9865 37.2506 36.5919 39.2737 32.4316 39.2737Z" fill="white"/>
<path d="M56.6312 22.3619C50.3477 22.3021 45.4079 26.6435 45.4983 33.1834C45.4079 39.7233 50.3477 44.0604 56.6312 44.0005C62.9148 44.0604 67.7943 39.719 67.734 33.1834C67.7943 26.6392 62.9148 22.3021 56.6312 22.3619ZM56.6312 39.3939C53.2203 39.3939 50.5544 36.9559 50.5544 33.1834C50.5544 29.4066 53.216 26.9728 56.6312 26.9728C60.0422 26.9728 62.6779 29.4108 62.6779 33.1834C62.6779 36.9559 60.0422 39.3939 56.6312 39.3939Z" fill="white"/>
<path d="M80.6497 39.3939C76.6703 39.3939 74.0949 36.8661 74.0949 33.1834C74.0949 29.4065 76.8469 26.9728 80.6196 26.9728C82.7729 26.9728 84.599 27.6871 86.0676 29.1114H86.5155V23.8761C84.599 22.8666 82.4758 22.3619 80.1717 22.3619C73.9183 22.302 68.9182 26.7333 69.0388 33.1834C69.0388 39.9884 73.7676 44.0005 80.3526 44.0005C82.7773 44.0005 84.9608 43.4958 86.9376 42.4564V36.8661H86.4897C85.0771 38.5 83.0443 39.3939 80.6497 39.3939Z" fill="white"/>
<path d="M87.6138 27.0878H93.0575V43.5809H97.9672V27.0878H103.415V22.7764H87.6138V27.0878Z" fill="white"/>
<path d="M114.88 22.3619C108.596 22.3021 103.656 26.6435 103.747 33.1834C103.656 39.7233 108.596 44.0604 114.88 44.0005C121.163 44.0604 126.043 39.719 125.983 33.1834C126.047 26.6392 121.168 22.3021 114.88 22.3619ZM114.88 39.3939C111.469 39.3939 108.803 36.9559 108.803 33.1834C108.803 29.4066 111.469 26.9728 114.88 26.9728C118.291 26.9728 120.926 29.4108 120.926 33.1834C120.926 36.9559 118.295 39.3939 114.88 39.3939Z" fill="white"/>
<path d="M132.852 34.8467H141.172V30.8304H132.852V27.0878H141.711V22.7764H127.942V43.5809H142.158V39.2737H132.852V34.8467Z" fill="white"/>
<path d="M156.625 32.4087C158.869 31.6645 159.976 30.2402 159.976 28.1571C159.976 24.8594 157.224 22.7764 152.792 22.7764H144.291V43.5852H153.507C158.417 43.5852 161.319 41.3567 161.319 37.6697C161.324 34.9024 159.648 33.123 156.625 32.4087ZM149.205 26.7884H152.168C153.873 26.7884 154.92 27.5626 154.92 29.0169C154.92 30.4711 153.873 31.2154 152.168 31.2154H149.205V26.7884ZM152.917 39.5688H149.205V34.6372H152.917C154.984 34.6372 156.237 35.4113 156.237 37.1051C156.237 38.769 154.98 39.5688 152.917 39.5688Z" fill="white"/>
<path d="M173.861 39.3939C169.881 39.3939 167.306 36.8661 167.306 33.1834C167.306 29.4065 170.058 26.9728 173.831 26.9728C175.984 26.9728 177.81 27.6871 179.279 29.1114H179.726V23.8761C177.81 22.8666 175.687 22.3619 173.383 22.3619C167.129 22.302 162.129 26.7333 162.25 33.1834C162.25 39.9884 166.978 44.0005 173.564 44.0005C175.988 44.0005 178.172 43.4958 180.149 42.4564V36.8661H179.701C178.292 38.5 176.255 39.3939 173.861 39.3939Z" fill="white"/>
<path d="M199.835 22.7764H193.939L187.233 30.9502V22.7764H182.328V43.5809H187.233V34.3976L194.537 43.5809H200.554L191.423 32.289L199.835 22.7764Z" fill="white"/>
<path d="M206.519 35.9417V22.7764H201.639V43.5809H205.86L215.434 30.4155V43.5809H220.313V22.7764H216.093L206.519 35.9417Z" fill="white"/>
<path d="M237.781 22.7764L228.207 35.9417V22.7764H223.328V43.5809H227.548L237.122 30.4155V43.5809H242.002V22.7764H237.781Z" fill="white"/>
<path d="M237.071 15.7832H228.255V19.7824H237.071V15.7832Z" fill="white"/>
<path d="M35.1273 13.0921H29.7913V10.5514H34.5632V8.25028H29.7913V6.10311H34.8733V3.63086H26.979V15.5601H35.1273V13.0921Z" fill="#6183B6"/>
<path d="M39.1716 10.2948L43.3577 15.5601H46.8074L41.5747 9.08434L46.394 3.63086H43.0132L39.1716 8.31872V3.63086H36.355V15.5601H39.1716V10.2948Z" fill="#6183B6"/>
<path d="M49.9686 15.5601H52.7852V6.10311H55.9076V3.63086H46.8462V6.10311H49.9686V15.5601Z" fill="#6183B6"/>
<path d="M62.4839 3.39586C58.8791 3.36164 56.0496 5.85099 56.1013 9.59786C56.0496 13.349 58.8791 15.8341 62.4839 15.7999C66.0886 15.8341 68.8837 13.3447 68.8492 9.59786C68.888 5.84672 66.0886 3.36164 62.4839 3.39586ZM62.4839 13.1608C60.5286 13.1608 58.9997 11.7621 58.9997 9.59786C58.9997 7.43357 60.5286 6.03492 62.4839 6.03492C64.4391 6.03492 65.9508 7.4293 65.9508 9.59786C65.9508 11.7621 64.4391 13.1608 62.4839 13.1608Z" fill="#6183B6"/>
<path d="M72.7898 11.2657H74.9001C77.6607 11.2657 79.3963 9.93552 79.3963 7.46327C79.3963 6.18437 78.9829 5.23055 78.143 4.60179C77.3032 3.95165 76.2222 3.63086 74.8656 3.63086H69.9731V15.5601H72.7898V11.2657ZM72.7898 6.01756H74.6072C75.8605 6.01756 76.4936 6.51372 76.4936 7.50176C76.4936 8.52403 75.7916 9.02018 74.6718 9.02018H72.7854V6.01756H72.7898Z" fill="#6183B6"/>
<path d="M88.1781 8.01076V15.5601H90.9775V3.63086H88.5571L83.0617 11.1845V3.63086H80.2666V15.5601H82.687L88.1781 8.01076Z" fill="#6183B6"/>
<path d="M95.5035 11.1845V3.63086H92.7041V15.5601H95.1245L100.616 8.01076V15.5601H103.415V3.63086H100.995L95.5035 11.1845Z" fill="#6183B6"/>
<path d="M100.586 0H95.5298V2.2926H100.586V0Z" fill="#6183B6"/>
<path d="M13.8823 15.5601H17.177L22.4355 6.01328V15.5601H25.2478V3.63086H20.4458L13.8823 15.5601Z" fill="#6183B6"/>
<path d="M18.6031 22.0469L18.0518 24.2246L22.688 25.3821L23.2392 23.2044L18.6031 22.0469Z" fill="white"/>
<path d="M17.8624 24.9746L14.6652 37.6055L19.3013 38.763L22.4985 26.1321L17.8624 24.9746Z" fill="white"/>
<path d="M13.9182 40.539L13.3711 42.7002L18.0072 43.8577L18.5543 41.6965L13.9182 40.539Z" fill="white"/>
<path d="M14.4715 38.3548L14.1082 39.79L18.7444 40.9475L19.1077 39.5123L14.4715 38.3548Z" fill="white"/>
<path d="M10.2097 22.8661L9.13344 24.8408L13.3374 27.1007L14.4137 25.126L10.2097 22.8661Z" fill="white"/>
<path d="M8.76117 25.5221L2.51889 36.9756L6.72284 39.2355L12.9651 27.782L8.76117 25.5221Z" fill="white"/>
<path d="M1.06809 39.6399L3.8147e-05 41.5996L4.204 43.8595L5.27205 41.8998L1.06809 39.6399Z" fill="white"/>
<path d="M2.15215 37.6556L1.44285 38.957L5.6468 41.217L6.35611 39.9155L2.15215 37.6556Z" fill="white"/>
</svg>
