<svg width="16" height="12" viewBox="0 0 16 12" fill="none" xmlns="http://www.w3.org/2000/svg">
<path d="M15.9881 1.44673C15.9881 1.42845 16.0007 1.41065 15.9998 1.39258L11.1172 6.09727L15.994 10.6517C15.9969 10.6191 15.9881 10.5863 15.9881 10.5531V1.44673Z" fill="white"/>
<path d="M10.3722 6.82129L8.37899 8.73904C8.27812 8.83608 8.14785 8.88474 8.01751 8.88474C7.88989 8.88474 7.76226 8.83816 7.66209 8.74481L5.67427 6.89247L0.765625 11.6239C0.88498 11.6667 1.01309 11.7 1.14726 11.7H14.8878C15.0871 11.7 15.2739 11.6394 15.4364 11.5489L10.3722 6.82129Z" fill="white"/>
<path d="M8.0112 7.64548L15.4628 0.467403C15.2941 0.367094 15.0977 0.299805 14.8872 0.299805H1.14664C0.872547 0.299805 0.621393 0.406231 0.425781 0.568545L8.0112 7.64548Z" fill="white"/>
<path d="M0 1.62158V10.553C0 10.6555 0.0235652 10.7544 0.0491463 10.8488L4.8969 6.18058L0 1.62158Z" fill="white"/>
</svg>
